<svg width="100%" height="100%" viewBox="0 0 53 53" fill="none" xmlns="http://www.w3.org/2000/svg">
    <path d="M47.0624 15.1899L37.8101 5.93971C37.5025 5.63204 37.1373 5.38798 36.7354 5.22146C36.3334 5.05494 35.9026 4.96924 35.4676 4.96924C35.0325 4.96924 34.6017 5.05494 34.1998 5.22146C33.7978 5.38798 33.4326 5.63204 33.125 5.93971L7.59599 31.4687C7.28706 31.7752 7.04213 32.1401 6.87544 32.542C6.70875 32.944 6.62363 33.3751 6.62502 33.8103V43.0625C6.62502 43.941 6.97401 44.7836 7.59523 45.4048C8.21644 46.026 9.05899 46.375 9.93752 46.375H44.7188C45.158 46.375 45.5793 46.2005 45.8899 45.8899C46.2005 45.5793 46.375 45.158 46.375 44.7187C46.375 44.2795 46.2005 43.8582 45.8899 43.5476C45.5793 43.237 45.158 43.0625 44.7188 43.0625H23.8749L47.0624 19.875C47.37 19.5674 47.6141 19.2022 47.7806 18.8002C47.9471 18.3983 48.0328 17.9675 48.0328 17.5324C48.0328 17.0974 47.9471 16.6666 47.7806 16.2646C47.6141 15.8627 47.37 15.4975 47.0624 15.1899ZM28.1563 15.5915L31.6116 19.0469L14.0781 36.5803L10.6228 33.125L28.1563 15.5915ZM9.93752 43.0625V37.1228L15.8772 43.0625H9.93752ZM19.875 42.3772L16.4217 38.9219L33.9531 21.3884L37.4085 24.8437L19.875 42.3772ZM39.75 22.5022L30.4999 13.25L35.4686 8.28124L44.7188 17.5335L39.75 22.5022Z" fill="black"/>
</svg>